<svg width="53" height="25" viewBox="0 0 53 25" fill="none" xmlns="http://www.w3.org/2000/svg">
<path d="M9.13418 25C6.40585 25 4.20141 23.868 2.52085 21.6041C0.840282 19.3402 0 16.3594 0 12.6617C0 8.7915 0.824721 5.71367 2.47416 3.4282C4.12361 1.14273 6.34361 0 9.13418 0C11.9351 0 14.1603 1.14273 15.8097 3.4282C17.4592 5.71367 18.2839 8.7915 18.2839 12.6617C18.2839 16.3594 17.4436 19.3402 15.7631 21.6041C14.0825 23.868 11.8729 25 9.13418 25ZM9.13418 22.1378C11.1156 22.1378 12.6976 21.2753 13.8802 19.5505C15.0732 17.8148 15.6697 15.5078 15.6697 12.6294C15.6697 9.61082 15.0836 7.22833 13.9113 5.48189C12.7495 3.73545 11.1571 2.86223 9.13418 2.86223C7.12165 2.86223 5.52926 3.73545 4.35702 5.48189C3.19515 7.22833 2.61421 9.61082 2.61421 12.6294C2.61421 15.5078 3.20552 17.8148 4.38814 19.5505C5.58113 21.2753 7.16314 22.1378 9.13418 22.1378Z" fill="black"/>
<path d="M32.5376 7.50323C32.4961 5.99396 32.0863 4.82967 31.3083 4.01035C30.5302 3.18025 29.4462 2.7652 28.0561 2.7652C26.6037 2.7652 25.5145 3.11018 24.7883 3.80013C24.0725 4.49008 23.7146 5.52501 23.7146 6.90492C23.7146 7.92906 24.0362 8.69448 24.6794 9.20116C25.3122 9.69707 26.583 10.1822 28.4918 10.6565C31.1579 11.3249 32.994 12.1658 34.0003 13.1792C35.0066 14.1925 35.5097 15.7126 35.5097 17.7393C35.5097 19.9709 34.8354 21.7389 33.4868 23.0433C32.1486 24.3478 30.3383 25 28.0561 25C25.7116 25 23.891 24.2885 22.5942 22.8655C21.3079 21.4317 20.644 19.4049 20.6025 16.7853H22.9833C23.004 18.5209 23.4553 19.8631 24.3371 20.8118C25.2188 21.7605 26.4585 22.2348 28.0561 22.2348C29.7055 22.2348 30.94 21.8952 31.7595 21.216C32.5791 20.5369 32.9888 19.5127 32.9888 18.1436C32.9888 16.9038 32.6673 15.9983 32.0241 15.4269C31.3913 14.8555 30.1205 14.3327 28.2117 13.8583C25.5456 13.19 23.7094 12.376 22.7032 11.4166C21.6969 10.4571 21.1938 9.02868 21.1938 7.13131C21.1938 4.94286 21.811 3.2072 23.0455 1.92432C24.28 0.64144 25.9502 0 28.0561 0C30.1827 0 31.8373 0.652221 33.02 1.95666C34.213 3.2611 34.8458 5.10996 34.9184 7.50323H32.5376Z" fill="black"/>
<path d="M39.0109 24.3855V0.614489H47.367C49.1306 0.614489 50.5103 1.20203 51.5062 2.3771C52.5021 3.55218 53 5.18542 53 7.27684C53 9.52997 52.4865 11.2656 51.4595 12.4838C50.4428 13.702 48.9905 14.3111 47.1025 14.3111H41.5317V24.3855H39.0109ZM41.5317 11.5944H46.48C47.8183 11.5944 48.8038 11.2495 49.4366 10.5595C50.0694 9.85878 50.3858 8.76994 50.3858 7.29301C50.3858 5.93467 50.0901 4.93747 49.4988 4.30142C48.9075 3.65459 47.9894 3.33118 46.7446 3.33118H41.5317V11.5944Z" fill="black"/>
</svg>
